<svg width="24" height="24" viewBox="0 0 24 24" fill="none" xmlns="http://www.w3.org/2000/svg">
<g clip-path="url(#clip0_871_8397)">
<path fill-rule="evenodd" clip-rule="evenodd" d="M3.87339 9.23555C3.54175 9.95661 3.54175 10.7769 3.54175 12.4175V17.5413C3.54175 19.8198 3.54175 20.959 4.24957 21.6669C4.91516 22.3324 5.96221 22.3722 7.97925 22.3745V16.3331C7.97925 15.1135 8.96795 14.1248 10.1876 14.1248H13.8126C15.0322 14.1248 16.0209 15.1135 16.0209 16.3331V22.3745C18.038 22.3722 19.085 22.3324 19.7506 21.6669C20.4584 20.959 20.4584 19.8198 20.4584 17.5413V12.4175C20.4584 10.7769 20.4584 9.95661 20.1268 9.23555C19.7951 8.51449 19.1723 7.98064 17.9267 6.91293L16.7183 5.87722C14.4668 3.94735 13.3411 2.98242 12.0001 2.98242C10.6591 2.98242 9.53335 3.94735 7.28184 5.87722L6.07351 6.91293C4.82786 7.98064 4.20503 8.51449 3.87339 9.23555ZM14.0209 22.3747V16.3331C14.0209 16.218 13.9276 16.1248 13.8126 16.1248H10.1876C10.0725 16.1248 9.97925 16.218 9.97925 16.3331V22.3747H14.0209Z" fill="#1F1F1F"/>
</g>
<defs>
<clipPath id="clip0_871_8397">
<rect width="24" height="24" fill="white"/>
</clipPath>
</defs>
</svg>
