<svg width="24" height="24" viewBox="0 0 24 24" fill="none" xmlns="http://www.w3.org/2000/svg">
<g clip-path="url(#clip0_871_8422)">
<path d="M4.97355 6.58575C5.27948 6.07587 5.43244 5.82093 5.64304 5.63575C5.82941 5.47188 6.04765 5.34831 6.28406 5.27281C6.5512 5.1875 6.84851 5.1875 7.44313 5.1875H16.5569C17.1515 5.1875 17.4488 5.1875 17.7159 5.27281C17.9523 5.34831 18.1706 5.47188 18.357 5.63575C18.5676 5.82093 18.7205 6.07587 19.0265 6.58575L21.1521 10.1285C21.3048 10.3831 21.3812 10.5104 21.4352 10.6463C21.4832 10.7669 21.5179 10.8924 21.5389 11.0205C21.5625 11.1648 21.5625 11.3133 21.5625 11.6102V16.9325C21.5625 17.9406 21.5625 18.4446 21.3663 18.8297C21.1937 19.1684 20.9184 19.4437 20.5797 19.6163C20.1946 19.8125 19.6906 19.8125 18.6825 19.8125H5.3175C4.30941 19.8125 3.80536 19.8125 3.42032 19.6163C3.08163 19.4437 2.80626 19.1684 2.63369 18.8297C2.4375 18.4446 2.4375 17.9406 2.4375 16.9325V11.6102C2.4375 11.3133 2.4375 11.1648 2.4611 11.0205C2.48206 10.8924 2.51682 10.7669 2.56477 10.6463C2.61878 10.5104 2.69516 10.3831 2.84792 10.1285L4.97355 6.58575Z" stroke="#222222" stroke-width="1.5"/>
<path d="M21.5625 13.0625H18.504C17.8083 13.0625 17.4604 13.0625 17.1985 13.2513C16.9367 13.44 16.8267 13.77 16.6067 14.43L16.3933 15.07C16.1733 15.73 16.0633 16.06 15.8015 16.2487C15.5396 16.4375 15.1917 16.4375 14.496 16.4375H9.50402C8.8083 16.4375 8.46044 16.4375 8.19855 16.2487C7.93666 16.06 7.82666 15.73 7.60665 15.07L7.39335 14.43C7.17334 13.77 7.06334 13.44 6.80145 13.2513C6.53956 13.0625 6.1917 13.0625 5.49598 13.0625H2.4375" stroke="#222222" stroke-width="1.5"/>
<path d="M3.96428 14.2656C3.96428 14.9744 3.90996 15.6973 3.90996 16.4142C3.90996 16.8795 3.79077 17.7787 4.45313 17.7419C4.83064 17.721 4.83667 16.8961 4.8756 16.6495C4.9499 16.179 4.85897 15.6327 5.0808 15.189C5.17606 14.9985 5.30396 14.776 5.458 15.0532C5.66586 15.4274 5.84193 15.8441 5.93176 16.2633C5.98629 16.5177 6.08382 16.7544 5.96194 17.0117C5.86646 17.2132 5.56502 17.6876 5.94987 17.6876C6.50066 17.6876 7.02802 17.5247 7.58542 17.5247C8.10448 17.5247 8.54665 17.5465 9.05198 17.6454C9.57844 17.7484 10.1085 17.7962 10.6453 17.7962C10.7084 17.7962 11.0097 17.7962 10.9712 17.7962C10.4748 17.7962 9.98119 17.7419 9.4835 17.7419C9.02365 17.7419 8.56987 17.8589 8.11652 17.932C7.90236 17.9666 7.7006 18.0156 7.49187 18.0678C7.03464 18.1821 7.63602 18.1765 7.80872 18.1765C9.76996 18.1765 11.7307 17.8672 13.6871 17.7449C14.2855 17.7075 14.8884 17.7279 15.4856 17.6906C16.0157 17.6575 16.5531 17.5866 17.0849 17.579C17.3839 17.5747 17.6729 17.5247 17.9721 17.5247C18.3002 17.5247 18.7033 17.5899 19.0222 17.5126C19.1831 17.4736 19.681 17.4469 19.5171 17.4703C19.1633 17.5209 18.8154 17.7066 18.467 17.7902C18.2379 17.8452 17.9989 17.9078 17.7669 17.9471C17.7455 17.9508 17.4857 17.9548 17.4983 17.9864C17.5616 18.1446 18.1312 18.0678 18.2286 18.0678C18.8237 18.0678 19.3869 17.9284 19.9758 17.9049C20.3356 17.8905 20.1229 17.4279 20.0663 17.235C19.9304 16.7713 19.9241 16.2468 19.8822 15.7654C19.8553 15.456 20.0206 15.4689 20.1206 15.2403C20.2833 14.8685 20.029 14.8631 19.6861 14.8631C19.4058 14.8631 19.1228 14.8281 18.8593 14.9295C18.6378 15.0147 18.5008 15.5165 18.467 15.7111C18.4567 15.7699 18.3248 16.2293 18.307 16.0521C18.287 15.8513 18.3246 15.6459 18.301 15.4455C18.264 15.1311 18.3583 14.8405 18.3583 14.5372" stroke="#222222" stroke-width="3" stroke-linecap="round"/>
</g>
<defs>
<clipPath id="clip0_871_8422">
<rect width="24" height="24" fill="white"/>
</clipPath>
</defs>
</svg>
