<svg width="24" height="24" viewBox="0 0 24 24" fill="none" xmlns="http://www.w3.org/2000/svg">
<rect x="4.125" y="5.4502" width="15.75" height="13.125" rx="2" stroke="#565656"/>
<path d="M4.125 8.9502C4.125 7.54573 4.125 6.8435 4.46206 6.33905C4.60798 6.12067 4.79548 5.93317 5.01386 5.78726C5.51831 5.4502 6.22054 5.4502 7.625 5.4502H16.375C17.7795 5.4502 18.4817 5.4502 18.9861 5.78726C19.2045 5.93317 19.392 6.12067 19.5379 6.33905C19.875 6.8435 19.875 7.54573 19.875 8.9502V8.9502H4.125V8.9502Z" fill="#565656"/>
<rect x="7.625" y="10.7002" width="3.5" height="1.75" rx="0.5" fill="#565656"/>
<rect x="7.625" y="14.2002" width="3.5" height="1.75" rx="0.5" fill="#565656"/>
<rect x="12.875" y="10.7002" width="3.5" height="1.75" rx="0.5" fill="#565656"/>
<rect x="12.875" y="14.2002" width="3.5" height="1.75" rx="0.5" fill="#565656"/>
</svg>
