<svg width="375" height="469" viewBox="0 0 375 469" fill="none" xmlns="http://www.w3.org/2000/svg">
<path d="M76.4839 39.15H96.4839V36.3H93.0589V28.35H96.2339V25.5H76.7339V28.35H79.9089V36.3H76.4839V39.15ZM75.3589 46.25H97.6089V43.375H75.3589V46.25ZM83.3089 36.3V28.35H89.6589V36.3H83.3089ZM99.1138 46.75H121.364V43.875H112.264V40.275H119.989V37.425H104.389V34.15H119.489V25.5H100.989V28.35H116.089V31.35H100.989V40.275H108.714V43.875H99.1138V46.75ZM123.119 37.35C125.369 36.875 127.269 35.675 128.669 33.9C130.019 35.55 132.044 36.65 134.119 37.1V34.375C131.894 33.65 130.344 32.05 130.344 29.475V27.975H133.844V25.275H123.244V27.975H126.919V29.475C126.919 32.05 125.469 33.95 123.119 34.625V37.35ZM124.994 41.3H140.594V47.35H143.994V38.5H124.994V41.3ZM135.719 37.625H138.919V25.15H135.719V29.275H132.744V32.2H135.719V37.625ZM140.794 37.625H143.994V25.025H140.794V37.625ZM146.624 46.5H168.874V43.625H146.624V46.5ZM148.499 40.275H167.499V37.425H151.899V34.175H166.924V31.375H151.899V28.35H167.124V25.5H148.499V40.275ZM177.998 47.25H197.248V44.45H181.398V40.25H177.998V47.25ZM193.348 41.875H196.748V34.175H199.748V31.125H196.748V25.025H193.348V41.875ZM176.998 28.025H186.848V34.9H190.248V25.225H176.998V28.025ZM176.373 38.675H192.348V36H184.023V31.275H180.473V36H176.373V38.675ZM217.852 47.35H221.252V25.025H217.852V47.35ZM201.377 45.9H216.352V43.05H204.777V36.925H214.352V25.65H201.377V28.5H210.952V34.125H201.377V45.9ZM232.501 47.25H252.001V44.725H235.951V43.65H251.501V37.75H232.501V40.275H248.051V41.225H232.501V47.25ZM232.126 32.6H251.876V29.95H248.626V27.775H251.626V25.125H232.376V27.775H235.376V29.95H232.126V32.6ZM230.876 36.5H253.126V33.825H230.876V36.5ZM238.776 29.95V27.775H245.226V29.95H238.776ZM255.131 38.125H265.981V35.475H258.381V32.875H265.131V25.275H255.131V27.925H261.881V30.3H255.131V38.125ZM267.231 38.375H270.431V33.1H272.556V40.125H275.756V25.025H272.556V30.05H270.431V25.15H267.231V38.375ZM256.756 47.5C260.581 47.275 264.206 45.875 266.381 43.725C268.556 45.875 272.181 47.275 276.006 47.5V44.85C271.681 44.475 268.131 42.35 268.131 39.7V39H264.631V39.7C264.631 42.35 261.081 44.475 256.756 44.85V47.5ZM278.386 37.975H300.636V35.3H291.286V33.6H299.386V30.9H296.136V27.825H299.136V25.125H279.886V27.825H282.886V30.9H279.636V33.6H287.736V35.3H278.386V37.975ZM280.011 47.25H299.011V39.25H280.011V47.25ZM283.411 44.55V41.95H295.611V44.55H283.411ZM286.286 30.9V27.825H292.736V30.9H286.286Z" fill="#5F5F5F"/>
<path d="M113.702 69.4H122.552V88H127.352V69.4H136.202V65.5H113.702V69.4ZM139.208 88L141.788 82.6H154.148L156.728 88H162.068L150.458 65.5H145.478L133.958 88H139.208ZM143.588 78.85L147.968 69.67L152.348 78.85H143.588ZM163.755 71.17C163.665 80.65 180.975 76.48 180.975 81.67C180.975 83.41 179.145 84.49 175.215 84.49C171.075 84.49 167.655 83.35 163.725 81.49L164.025 86.08C167.175 87.58 171.075 88.54 175.185 88.54C182.025 88.54 185.715 86.05 185.715 81.58C185.715 72.04 168.405 75.97 168.405 71.26C168.405 69.67 170.205 68.8 174.555 68.8C178.515 68.8 181.935 69.58 184.635 70.51L184.365 66.31C181.935 65.62 178.485 64.96 174.465 64.96C167.235 64.96 163.785 67.06 163.755 71.17ZM188.957 88H193.757V79.87L196.757 77.77L206.327 88H212.567L200.177 75.07L212.267 65.5H205.997L193.757 74.95V65.5H188.957V88ZM215.266 88H235.756V84.1H220.066V78.46H233.896V74.68H220.066V69.4H235.516V65.5H215.266V88ZM239.202 88H244.002V79.15H249.822L256.662 88H262.542L255.072 78.73C259.542 78.52 262.212 76 262.212 72.31C262.212 68.32 259.272 65.5 253.992 65.5H239.202V88ZM244.002 75.25V69.4H252.972C256.092 69.4 257.412 70.27 257.412 72.34C257.412 74.38 256.182 75.25 253.182 75.25H244.002Z" fill="#1F1F1F"/>
<path d="M84.9727 147.416H78.4541V146.288H81.0322V144.501H82.4092V146.288H84.9727V147.416ZM78.8789 151.225C78.8789 150.644 78.9985 150.124 79.2378 149.665C79.4819 149.206 79.8213 148.849 80.2559 148.595C80.6904 148.336 81.1787 148.207 81.7207 148.207C82.2676 148.207 82.7559 148.336 83.1855 148.595C83.6201 148.849 83.9595 149.206 84.2036 149.665C84.4526 150.124 84.5771 150.644 84.5771 151.225C84.5771 151.815 84.4526 152.343 84.2036 152.807C83.9595 153.271 83.6201 153.632 83.1855 153.891C82.7559 154.145 82.2676 154.271 81.7207 154.271C81.1787 154.271 80.6904 154.145 80.2559 153.891C79.8213 153.632 79.4819 153.271 79.2378 152.807C78.9985 152.343 78.8789 151.815 78.8789 151.225ZM80.1094 151.225C80.1094 151.591 80.1777 151.916 80.3145 152.199C80.4512 152.477 80.6416 152.694 80.8857 152.851C81.1299 153.007 81.4082 153.085 81.7207 153.085C82.0332 153.085 82.3115 153.007 82.5557 152.851C82.8047 152.694 82.9976 152.477 83.1343 152.199C83.2759 151.916 83.3467 151.591 83.3467 151.225C83.3467 150.868 83.2759 150.548 83.1343 150.265C82.9976 149.982 82.8047 149.762 82.5557 149.606C82.3115 149.445 82.0332 149.364 81.7207 149.364C81.4082 149.364 81.1299 149.445 80.8857 149.606C80.6416 149.762 80.4512 149.982 80.3145 150.265C80.1777 150.548 80.1094 150.868 80.1094 151.225ZM85.5732 144.413H86.8916V149.584H88.4004V144.12H89.7188V157.245H88.4004V150.727H86.8916V156.63H85.5732V144.413ZM94.7979 145.102C95.4473 145.102 96.0259 145.292 96.5337 145.673C97.0464 146.049 97.4468 146.586 97.7349 147.284C98.023 147.978 98.167 148.783 98.167 149.701C98.167 150.629 98.023 151.442 97.7349 152.14C97.4468 152.838 97.0489 153.375 96.5411 153.751C96.0332 154.127 95.4522 154.315 94.7979 154.315C94.1436 154.315 93.5625 154.127 93.0547 153.751C92.5469 153.375 92.1514 152.838 91.8682 152.14C91.585 151.442 91.4434 150.629 91.4434 149.701C91.4434 148.783 91.585 147.978 91.8682 147.284C92.1514 146.586 92.5469 146.049 93.0547 145.673C93.5625 145.292 94.1436 145.102 94.7979 145.102ZM92.7764 149.701C92.7764 150.385 92.8594 150.98 93.0254 151.488C93.1963 151.996 93.4356 152.387 93.7432 152.66C94.0508 152.934 94.4024 153.07 94.7979 153.07C95.2032 153.07 95.5596 152.936 95.8672 152.667C96.1748 152.394 96.4117 152.003 96.5777 151.496C96.7486 150.983 96.834 150.385 96.834 149.701C96.834 149.022 96.7486 148.432 96.5777 147.929C96.4117 147.421 96.1748 147.03 95.8672 146.757C95.5596 146.483 95.2032 146.347 94.7979 146.347C94.4024 146.347 94.0508 146.486 93.7432 146.764C93.4356 147.038 93.1963 147.428 93.0254 147.936C92.8594 148.439 92.7764 149.027 92.7764 149.701ZM100.115 144.12H101.507V147.328H103.543V148.515H101.507V151.239H103.543V152.382H101.507V157.245H100.115V144.12ZM114.394 147.152H116.313V148.295H114.394V151.298H113.002V144.076H114.394V147.152ZM104.096 145.233H107.318V144.003H108.71V145.233H111.918V146.332H104.096V145.233ZM104.814 148.983C104.814 148.549 104.943 148.17 105.202 147.848C105.465 147.521 105.839 147.27 106.322 147.094C106.806 146.918 107.367 146.83 108.007 146.83C108.647 146.83 109.206 146.918 109.684 147.094C110.163 147.27 110.531 147.519 110.79 147.841C111.054 148.163 111.186 148.544 111.186 148.983C111.186 149.423 111.054 149.804 110.79 150.126C110.531 150.448 110.163 150.695 109.684 150.866C109.206 151.037 108.647 151.122 108.007 151.122C107.367 151.122 106.806 151.037 106.322 150.866C105.839 150.695 105.465 150.448 105.202 150.126C104.943 149.804 104.814 149.423 104.814 148.983ZM105.912 151.913H114.394V154.96H107.304V156.059H114.848V157.113H105.941V153.979H113.017V152.953H105.912V151.913ZM106.161 148.983C106.156 149.335 106.32 149.611 106.652 149.811C106.984 150.011 107.436 150.111 108.007 150.111C108.573 150.111 109.025 150.011 109.362 149.811C109.704 149.611 109.877 149.335 109.882 148.983C109.877 148.632 109.704 148.354 109.362 148.148C109.025 147.938 108.573 147.831 108.007 147.826C107.436 147.831 106.984 147.938 106.652 148.148C106.32 148.354 106.156 148.632 106.161 148.983ZM124.098 144.56C124.752 144.564 125.34 144.694 125.863 144.948C126.385 145.197 126.796 145.543 127.093 145.988C127.391 146.432 127.54 146.938 127.54 147.504C127.54 148.07 127.391 148.576 127.093 149.02C126.796 149.464 126.385 149.811 125.863 150.06C125.34 150.309 124.752 150.434 124.098 150.434C123.439 150.434 122.845 150.309 122.318 150.06C121.796 149.811 121.385 149.464 121.088 149.02C120.79 148.576 120.641 148.07 120.641 147.504C120.641 146.938 120.79 146.432 121.088 145.988C121.385 145.543 121.796 145.197 122.318 144.948C122.845 144.694 123.439 144.564 124.098 144.56ZM122.003 147.504C122.003 147.86 122.091 148.175 122.267 148.449C122.447 148.717 122.696 148.927 123.014 149.079C123.336 149.23 123.697 149.306 124.098 149.306C124.498 149.306 124.857 149.23 125.174 149.079C125.492 148.927 125.741 148.717 125.922 148.449C126.102 148.175 126.193 147.86 126.193 147.504C126.193 147.152 126.102 146.842 125.922 146.574C125.741 146.3 125.489 146.09 125.167 145.944C124.85 145.797 124.493 145.727 124.098 145.731C123.697 145.727 123.336 145.797 123.014 145.944C122.696 146.09 122.447 146.3 122.267 146.574C122.091 146.842 122.003 147.152 122.003 147.504ZM122.633 151.4H131.261V154.711H124.025V155.971H131.7V157.084H122.677V153.671H129.884V152.514H122.633V151.4ZM129.869 144.12H131.261V150.8H129.869V144.12ZM139.153 144.34C140.139 144.34 140.981 144.425 141.679 144.596C142.378 144.767 142.912 145.023 143.283 145.365C143.654 145.702 143.84 146.112 143.84 146.596C143.84 147.084 143.654 147.499 143.283 147.841C142.912 148.178 142.378 148.434 141.679 148.61C140.981 148.781 140.139 148.866 139.153 148.866C138.166 148.866 137.321 148.781 136.618 148.61C135.92 148.434 135.385 148.178 135.014 147.841C134.648 147.499 134.465 147.084 134.465 146.596C134.465 146.112 134.648 145.702 135.014 145.365C135.385 145.023 135.92 144.767 136.618 144.596C137.321 144.425 138.166 144.34 139.153 144.34ZM133.176 149.672H145.144V150.785H133.176V149.672ZM134.612 151.796H143.635V154.872H135.988V156.044H144.001V157.113H134.626V153.861H142.258V152.836H134.612V151.796ZM135.915 146.596C135.91 147.001 136.186 147.309 136.743 147.519C137.3 147.724 138.103 147.826 139.153 147.826C140.212 147.826 141.02 147.724 141.577 147.519C142.133 147.309 142.409 147.001 142.404 146.596C142.409 146.205 142.129 145.902 141.562 145.688C141.001 145.473 140.197 145.365 139.153 145.365C138.112 145.365 137.312 145.473 136.75 145.688C136.189 145.902 135.91 146.205 135.915 146.596ZM154.057 146.479C154.052 147.04 154.174 147.58 154.423 148.097C154.677 148.615 155.043 149.076 155.522 149.481C156 149.887 156.567 150.199 157.221 150.419L156.518 151.503C155.785 151.249 155.148 150.878 154.606 150.39C154.069 149.901 153.657 149.33 153.368 148.676C153.08 149.389 152.656 150.014 152.094 150.551C151.537 151.083 150.878 151.483 150.116 151.752L149.369 150.668C150.038 150.438 150.622 150.109 151.12 149.679C151.618 149.25 151.999 148.759 152.262 148.207C152.526 147.65 152.66 147.069 152.665 146.464V146.112H149.78V144.984H156.884V146.112H154.057V146.479ZM151.113 152.675H159.784V157.245H158.393V153.803H151.113V152.675ZM158.393 144.12H159.784V147.489H161.689V148.661H159.784V152.03H158.393V144.12ZM166.929 146.083C166.929 146.693 167.056 147.274 167.31 147.826C167.564 148.373 167.93 148.854 168.409 149.269C168.887 149.684 169.453 149.999 170.108 150.214L169.346 151.298C168.628 151.034 168.008 150.658 167.486 150.17C166.963 149.682 166.558 149.105 166.27 148.441C165.982 149.203 165.557 149.865 164.995 150.426C164.434 150.988 163.76 151.41 162.974 151.693L162.227 150.58C162.915 150.346 163.509 150.006 164.007 149.562C164.505 149.113 164.886 148.595 165.149 148.009C165.413 147.423 165.547 146.801 165.552 146.142V144.853H166.929V146.083ZM164.38 154.74C164.38 154.213 164.556 153.761 164.908 153.385C165.264 153.009 165.774 152.724 166.438 152.528C167.107 152.333 167.901 152.235 168.819 152.235C169.732 152.235 170.52 152.333 171.184 152.528C171.848 152.724 172.359 153.009 172.715 153.385C173.076 153.761 173.257 154.213 173.257 154.74C173.257 155.263 173.076 155.709 172.715 156.081C172.359 156.452 171.848 156.732 171.184 156.923C170.52 157.118 169.732 157.216 168.819 157.216C167.901 157.216 167.107 157.118 166.438 156.923C165.774 156.732 165.264 156.452 164.908 156.081C164.556 155.709 164.38 155.263 164.38 154.74ZM165.757 154.74C165.757 155.028 165.874 155.275 166.109 155.48C166.348 155.685 166.695 155.844 167.149 155.956C167.603 156.063 168.145 156.117 168.775 156.117C169.751 156.117 170.511 155.998 171.053 155.758C171.599 155.519 171.875 155.18 171.88 154.74C171.875 154.291 171.602 153.942 171.06 153.693C170.523 153.444 169.776 153.319 168.819 153.319C167.852 153.319 167.097 153.444 166.555 153.693C166.018 153.942 165.752 154.291 165.757 154.74ZM169.053 146.786H171.822V144.12H173.213V151.869H171.822V147.929H169.053V146.786ZM185.294 149.438H187.404V150.595H185.294V157.245H183.917V144.12H185.294V149.438ZM174.996 146.171H178.234V144.296H179.625V146.171H182.775V147.313H174.996V146.171ZM175.67 151.327C175.67 150.741 175.809 150.216 176.088 149.752C176.371 149.289 176.759 148.927 177.252 148.668C177.75 148.41 178.312 148.28 178.937 148.28C179.557 148.28 180.114 148.41 180.607 148.668C181.105 148.927 181.495 149.289 181.779 149.752C182.062 150.216 182.203 150.741 182.203 151.327C182.203 151.918 182.062 152.445 181.779 152.909C181.495 153.373 181.105 153.737 180.607 154C180.114 154.259 179.557 154.389 178.937 154.389C178.312 154.389 177.75 154.259 177.252 154C176.759 153.737 176.371 153.373 176.088 152.909C175.809 152.445 175.67 151.918 175.67 151.327ZM177.003 151.327C177.003 151.703 177.084 152.035 177.245 152.323C177.411 152.611 177.64 152.833 177.933 152.99C178.231 153.146 178.566 153.222 178.937 153.217C179.303 153.222 179.633 153.146 179.926 152.99C180.219 152.833 180.448 152.611 180.614 152.323C180.785 152.035 180.87 151.703 180.87 151.327C180.87 150.961 180.785 150.634 180.614 150.346C180.448 150.058 180.219 149.833 179.926 149.672C179.633 149.506 179.303 149.423 178.937 149.423C178.566 149.423 178.231 149.506 177.933 149.672C177.64 149.833 177.411 150.058 177.245 150.346C177.084 150.634 177.003 150.961 177.003 151.327ZM198.489 146.669C198.484 147.426 198.472 148.073 198.452 148.61C198.437 149.142 198.393 149.765 198.32 150.478C198.252 151.19 198.142 151.962 197.991 152.792L196.584 152.646C196.741 151.859 196.855 151.12 196.929 150.426C197.002 149.728 197.046 149.113 197.06 148.581C197.08 148.048 197.092 147.411 197.097 146.669V146.508H189.128V145.38H198.489V146.669ZM187.869 154.315H192.424V149.687H193.801V154.315H199.836V155.473H187.869V154.315ZM214.814 151.122H210.844V154.462H216.176V155.604H204.165V154.462H209.453V151.122H205.6V145.204H207.006V149.979H214.814V151.122ZM227.188 149.438H229.297V150.595H227.188V157.245H225.811V144.12H227.188V149.438ZM216.89 146.171H220.127V144.296H221.519V146.171H224.668V147.313H216.89V146.171ZM217.564 151.327C217.564 150.741 217.703 150.216 217.981 149.752C218.265 149.289 218.653 148.927 219.146 148.668C219.644 148.41 220.206 148.28 220.831 148.28C221.451 148.28 222.007 148.41 222.501 148.668C222.999 148.927 223.389 149.289 223.672 149.752C223.956 150.216 224.097 150.741 224.097 151.327C224.097 151.918 223.956 152.445 223.672 152.909C223.389 153.373 222.999 153.737 222.501 154C222.007 154.259 221.451 154.389 220.831 154.389C220.206 154.389 219.644 154.259 219.146 154C218.653 153.737 218.265 153.373 217.981 152.909C217.703 152.445 217.564 151.918 217.564 151.327ZM218.897 151.327C218.897 151.703 218.978 152.035 219.139 152.323C219.305 152.611 219.534 152.833 219.827 152.99C220.125 153.146 220.459 153.222 220.831 153.217C221.197 153.222 221.526 153.146 221.819 152.99C222.112 152.833 222.342 152.611 222.508 152.323C222.679 152.035 222.764 151.703 222.764 151.327C222.764 150.961 222.679 150.634 222.508 150.346C222.342 150.058 222.112 149.833 221.819 149.672C221.526 149.506 221.197 149.423 220.831 149.423C220.459 149.423 220.125 149.506 219.827 149.672C219.534 149.833 219.305 150.058 219.139 150.346C218.978 150.634 218.897 150.961 218.897 151.327ZM241.759 152.733H236.398V157.245H235.036V152.733H229.748V151.576H241.759V152.733ZM231.051 147.533C231.051 146.947 231.247 146.435 231.637 145.995C232.033 145.551 232.582 145.211 233.285 144.977C233.988 144.738 234.801 144.618 235.724 144.618C236.647 144.618 237.46 144.738 238.163 144.977C238.871 145.211 239.42 145.551 239.811 145.995C240.202 146.435 240.397 146.947 240.397 147.533C240.397 148.114 240.202 148.622 239.811 149.057C239.42 149.491 238.871 149.828 238.163 150.067C237.46 150.302 236.647 150.419 235.724 150.419C234.806 150.419 233.993 150.302 233.285 150.067C232.582 149.828 232.033 149.491 231.637 149.057C231.247 148.622 231.051 148.114 231.051 147.533ZM232.487 147.533C232.487 147.895 232.619 148.209 232.882 148.478C233.151 148.742 233.529 148.947 234.018 149.093C234.511 149.235 235.08 149.306 235.724 149.306C236.374 149.306 236.942 149.235 237.431 149.093C237.919 148.947 238.297 148.742 238.566 148.478C238.839 148.209 238.976 147.895 238.976 147.533C238.976 147.167 238.839 146.85 238.566 146.581C238.297 146.312 237.919 146.105 237.431 145.958C236.942 145.807 236.374 145.731 235.724 145.731C235.08 145.731 234.511 145.807 234.018 145.958C233.529 146.105 233.151 146.312 232.882 146.581C232.619 146.85 232.487 147.167 232.487 147.533ZM254.558 151.21H242.546V150.141H254.558V151.21ZM243.967 152.133H253.079V155.019H245.374V156.103H253.489V157.084H243.982V154.096H251.702V153.129H243.967V152.133ZM244.055 144.457H253.049V147.299H245.462V148.295H253.269V149.276H244.085V146.376H251.658V145.438H244.055V144.457ZM271.118 150.419H269.082V157.23H267.69V144.12H269.082V149.276H271.118V150.419ZM259.355 145.395H260.732V152.777C262.739 152.768 264.682 152.572 266.562 152.191L266.723 153.363C265.659 153.573 264.612 153.722 263.581 153.81C262.551 153.898 261.504 153.939 260.439 153.935H259.355V145.395ZM282.569 157.245H281.177V154.022H278.248V152.924H281.177V144.135H282.569V157.245ZM271.553 150.771C273.292 150.771 274.844 150.753 276.212 150.719C277.579 150.68 278.887 150.595 280.137 150.463L280.225 151.518C279.166 151.654 277.935 151.759 276.534 151.833V156.835H275.142V151.884C274.224 151.908 273.419 151.92 272.725 151.92L271.715 151.913L271.553 150.771ZM272.769 144.794H274.176V148.09H279.288V149.218H272.769V144.794ZM296.467 155.604H284.455V154.447H287.326V151.02C286.774 150.717 286.347 150.333 286.044 149.87C285.741 149.406 285.593 148.886 285.597 148.31C285.597 147.631 285.803 147.033 286.213 146.515C286.623 145.998 287.194 145.597 287.927 145.314C288.664 145.026 289.499 144.882 290.431 144.882C291.364 144.882 292.199 145.026 292.936 145.314C293.674 145.597 294.247 145.998 294.657 146.515C295.073 147.033 295.28 147.631 295.28 148.31C295.28 148.881 295.134 149.396 294.841 149.855C294.548 150.309 294.133 150.688 293.595 150.99V154.447H296.467V155.604ZM286.945 148.31C286.945 148.773 287.092 149.181 287.385 149.533C287.678 149.884 288.088 150.158 288.615 150.353C289.142 150.543 289.748 150.639 290.431 150.639C291.11 150.639 291.713 150.541 292.24 150.346C292.773 150.15 293.188 149.879 293.486 149.533C293.783 149.181 293.932 148.773 293.932 148.31C293.932 147.846 293.783 147.44 293.486 147.094C293.188 146.742 292.773 146.471 292.24 146.281C291.713 146.09 291.11 145.995 290.431 145.995C289.748 145.995 289.142 146.09 288.615 146.281C288.088 146.471 287.678 146.742 287.385 147.094C287.092 147.44 286.945 147.846 286.945 148.31ZM292.189 154.447V151.532C291.642 151.659 291.056 151.723 290.431 151.723C289.816 151.723 289.24 151.659 288.703 151.532V154.447H292.189Z" fill="#9C9C9C"/>
<ellipse cx="187" cy="353" rx="95" ry="62" fill="#CCCCCC"/>
<path d="M110 78.1113L265.556 78.1113" stroke="#D05D4D" stroke-width="4" stroke-linecap="round"/>
</svg>
